<svg width="18" height="19" viewBox="0 0 18 19" fill="none" xmlns="http://www.w3.org/2000/svg">
<path d="M0.980957 6.38679C0.980957 5.56319 1.34261 4.78114 1.97014 4.24773L6.18121 0.668328C7.22956 -0.222775 8.76924 -0.222776 9.8176 0.668326L14.0287 4.24773C14.6562 4.78113 15.0179 5.56319 15.0179 6.38679V13.5107C15.0179 15.0612 13.7609 16.3181 12.2105 16.3181H3.78834C2.23786 16.3181 0.980957 15.0612 0.980957 13.5107V6.38679Z" fill="#B072FF"/>
<path d="M3.69824 8.40208C3.69824 7.57848 4.0599 6.79642 4.68743 6.26302L8.89849 2.68362C9.94685 1.79251 11.4865 1.79251 12.5349 2.68361L16.7459 6.26302C17.3735 6.79642 17.7351 7.57848 17.7351 8.40208V15.526C17.7351 17.0764 16.4782 18.3333 14.9278 18.3333H6.50562C4.95515 18.3333 3.69824 17.0764 3.69824 15.526V8.40208Z" fill="#33373B"/>
</svg>
